# xmcd CD database file
#
# Track frame offsets:
#	150
#	13492
#	30047
#	41995
#	56742
#	69692
#	81352
#	94560
#	113432
#	124150
#	136712
#	147682
#	160422
#	171135
#	189237
#	202740
#	215495
#	226117
#	244062
#	263505
#	284345
#	302257
#	317000
#	329785
#
# Disc length: 4575 seconds
#
# Revision: 4
# Processed by: cddbd v1.5.2PL0 Copyright (c) Steve Scherf et al.
# Submitted via: CDex 1.40PlusFr
#
DISCID=5011dd18
DTITLE=LA LEGENDE DE L'OUEST - Toute l'âme de l'Ouest américain
DYEAR=1998
DGENRE=Country
TTITLE0=BILLY SWAN - I Can Help
TTITLE1=JOHNNY CASH - The City Of New Orleans
TTITLE2=TAMMY WYNETTE - Stand By Your Man
TTITLE3=BOB DYLAN - Lay Lady Lay
TTITLE4=DOLLY PARTON - I Will Always Love You
TTITLE5=CHARLIE RICH - The Most Beautiful Girl
TTITLE6=B J THOMAS - Raindrops Keep Fallin
TTITLE7=BOBBIE GENTRY - Ode To Billy Joe
TTITLE8=ROGER MILLER - King Of The Road
TTITLE9=CHARLIE McCOY - Orange Blossom Special
TTITLE10=WILLIE NELSON - On The Road Again
TTITLE11=DOLLY PARTON - Honky Tonk Angels
TTITLE12=FRANKIE LAINE - High Noon
TTITLE13=KRIS KRISTOFFERSON - Me And Bobby Mc Gee
TTITLE14=CASH, NELSON, JENNINGS and KRISTOFFERSON - Highwayman
TTITLE15=LYNN ANDERSON - Rose Garden
TTITLE16=BYRDS - You´re Still On My Mind
TTITLE17=CHET ATKINS and MARK KNOPFLER - Poor Boy Blues
TTITLE18=VAUGHAN BROTHERS - Good Texan
TTITLE19=CALVIN RUSSEL - Valley For Bellow
TTITLE20=ROSANNE CASH - Runaway Train
TTITLE21=RICKY VAN SHELTON - Wild Man
TTITLE22=DARDEN SMITH - A Place In The Sun
TTITLE23=CHARLIE DANIELS - Layla
EXTD=YEAR: 1998 ID3G: 2
EXTT0=
EXTT1=
EXTT2=
EXTT3=
EXTT4=
EXTT5=
EXTT6=
EXTT7=
EXTT8=
EXTT9=
EXTT10=
EXTT11=
EXTT12=
EXTT13=
EXTT14=
EXTT15=
EXTT16=
EXTT17=
EXTT18=
EXTT19=
EXTT20=
EXTT21=
EXTT22=
EXTT23=
PLAYORDER=
